<?xml version="1.0" encoding="utf-8"?>
<!-- Generator: Adobe Illustrator 27.3.1, SVG Export Plug-In . SVG Version: 6.00 Build 0)  -->
<svg version="1.1" id="Layer_1" xmlns="http://www.w3.org/2000/svg" xmlns:xlink="http://www.w3.org/1999/xlink" x="0px" y="0px"
	 viewBox="0 0 45 45" style="enable-background:new 0 0 45 45;" xml:space="preserve">
<style type="text/css">
	.st0{fill:#212222;}
</style>
<g>
	<path class="st0" d="M11.8,11.5L10.3,6H4.3v3h3.8l5.7,20.2h22.3l4.7-17.8H11.8z M33.8,26.3H16l-3.3-11.8h24.2L33.8,26.3z"/>
	<path class="st0" d="M18,30.7c-2.3,0-4.1,1.9-4.1,4.1c0,2.3,1.9,4.1,4.1,4.1s4.1-1.9,4.1-4.1C22.1,32.5,20.3,30.7,18,30.7z M18,36
		c-0.6,0-1.2-0.5-1.2-1.2c0-0.6,0.5-1.2,1.2-1.2c0.6,0,1.2,0.5,1.2,1.2C19.2,35.5,18.6,36,18,36z"/>
	<path class="st0" d="M31.5,30.7c-2.3,0-4.1,1.9-4.1,4.1c0,2.3,1.9,4.1,4.1,4.1s4.1-1.9,4.1-4.1C35.6,32.5,33.7,30.7,31.5,30.7z
		 M31.5,36c-0.6,0-1.2-0.5-1.2-1.2c0-0.6,0.5-1.2,1.2-1.2c0.6,0,1.2,0.5,1.2,1.2C32.6,35.5,32.1,36,31.5,36z"/>
</g>
</svg>
