<?xml version="1.0" encoding="utf-8"?>
<!-- Generator: Adobe Illustrator 27.3.1, SVG Export Plug-In . SVG Version: 6.00 Build 0)  -->
<svg version="1.1" id="Layer_1" xmlns="http://www.w3.org/2000/svg" xmlns:xlink="http://www.w3.org/1999/xlink" x="0px" y="0px"
	 viewBox="0 0 45 45" style="enable-background:new 0 0 45 45;" xml:space="preserve">
<style type="text/css">
	.st0{fill:#212222;}
</style>
<path class="st0" d="M38.6,36.4l-8.2-8.1c4.2-5.3,3.8-13-1.1-17.9c-2.6-2.6-6-3.9-9.4-3.9c-3.5,0-6.9,1.3-9.6,4
	c-5.2,5.3-5.2,13.8,0.1,19c2.6,2.6,6,3.9,9.4,3.9c3,0,6-1,8.4-3l8.2,8.1L38.6,36.4z M19.8,30.4c-2.8,0-5.4-1.1-7.4-3
	c-2-2-3.1-4.6-3.1-7.4c0-2.8,1.1-5.4,3-7.4c2-2,4.6-3.1,7.4-3.1c2.8,0,5.4,1.1,7.4,3c4.1,4.1,4.1,10.7,0.1,14.8
	C25.3,29.3,22.7,30.4,19.8,30.4z"/>
</svg>
