<?xml version="1.0" encoding="utf-8"?>
<!-- Generator: Adobe Illustrator 27.3.1, SVG Export Plug-In . SVG Version: 6.00 Build 0)  -->
<svg version="1.1" id="Layer_1" xmlns="http://www.w3.org/2000/svg" xmlns:xlink="http://www.w3.org/1999/xlink" x="0px" y="0px"
	 viewBox="0 0 45 45" style="enable-background:new 0 0 45 45;" xml:space="preserve">
<style type="text/css">
	.st0{fill:#212222;}
</style>
<g>
	<path class="st0" d="M22.5,22c4.7,0,8.5-3.8,8.5-8.5c0-4.7-3.8-8.5-8.5-8.5c-4.7,0-8.5,3.8-8.5,8.5C14,18.2,17.8,22,22.5,22z
		 M22.5,7.9c3.1,0,5.6,2.5,5.6,5.5S25.6,19,22.5,19s-5.6-2.5-5.6-5.6S19.4,7.9,22.5,7.9z"/>
	<path class="st0" d="M22.5,24c-6.6,0-12,5.4-12,12c0,0.4,0,0.7,0,1c0.1,1,0.3,2,0.7,3h3.2h16.1h3.2c0.3-0.9,0.6-1.9,0.7-3
		c0-0.3,0-0.7,0-1C34.5,29.4,29.1,24,22.5,24z M13.6,37.1c0-0.3-0.1-0.7-0.1-1c0-5,4-9,9-9c5,0,9,4.1,9,9c0,0.4,0,0.7-0.1,1H13.6z"
		/>
</g>
</svg>
