<?xml version="1.0" encoding="utf-8"?>
<!-- Generator: Adobe Illustrator 27.3.1, SVG Export Plug-In . SVG Version: 6.00 Build 0)  -->
<svg version="1.1" id="Layer_1" xmlns="http://www.w3.org/2000/svg" xmlns:xlink="http://www.w3.org/1999/xlink" x="0px" y="0px"
	 viewBox="0 0 79.4 14.1" style="enable-background:new 0 0 79.4 14.1;" xml:space="preserve">
<style type="text/css">
	.st0{fill-rule:evenodd;clip-rule:evenodd;fill:#1D1D1B;}
</style>
<g>
	<path class="st0" d="M43.3,6.6c0,0-0.7-0.5-1.2-0.6c0,0-1.4-0.6-1.7-1c0,0-0.5-0.5-0.2-1.1c0,0,0.1-0.4,0.7-0.4c0,0,0.8,0,0.8,0.7
		v0.9h2.7l0-1.3c0,0,0.2-2.1-3.2-2.2c0,0-2.7-0.2-3.4,1.3c0,0-0.3,0.3-0.3,1.4v0.8c0,0,0,0.9,0.4,1.5c0,0,0.3,0.4,0.9,0.8
		c0,0,1.3,0.7,2.1,1.1c0,0,0.8,0.5,0.7,1.2c0,0-0.1,0.8-0.8,0.7c0,0-0.7,0-0.7-0.8V8.9h-2.9v1.3c0,0-0.1,2.4,3.6,2.4
		c0,0,3.5,0.1,3.7-2.5V9C44.6,9,44.7,7.5,43.3,6.6z"/>
	<polygon class="st0" points="29.5,1.9 28.6,7.6 28.4,7.6 27.6,2 23.1,2 22.8,12.2 25.5,12.2 25.5,4.5 25.7,4.5 27.1,12.2 30,12.2 
		31.3,4.5 31.5,4.5 31.6,12.2 34.3,12.2 34,1.9 	"/>
	<polygon class="st0" points="13.7,2 11.9,12.2 14.8,12.2 15.8,4.3 16,4.3 17.1,12.2 20,12.2 18.2,2 	"/>
	<path class="st0" d="M73.9,6.5V8h0.7v1.6c0,0.8-0.7,0.8-0.7,0.8c-0.8,0-0.8-0.8-0.8-0.8V4.1c0-0.6,0.7-0.6,0.7-0.6
		c0.7,0,0.7,0.7,0.7,0.7V5h2.7C77.4,3.4,77,3,77,3c-0.7-1.5-3.2-1.4-3.2-1.4c-3.9,0-3.5,3-3.5,3v5.4c0.1,2.8,3.9,2.5,4,2.5
		c1.7-0.2,2.2-0.7,2.2-0.7c0.5-0.4,0.6-0.8,0.6-0.8c0.1-0.3,0.2-1.2,0.2-1.2V6.5H73.9z"/>
	<polygon class="st0" points="64.9,8.2 64.8,8.2 62.1,1.9 58.8,1.9 58.8,12.2 61.4,12.2 61.3,5.9 61.4,5.9 64.2,12.2 67.4,12.2 
		67.4,1.9 64.7,1.9 	"/>
	<path class="st0" d="M52.3,9.6c0,0,0,0.8-0.7,0.8c0,0-0.8,0-0.8-0.8l0-7.7h-2.9v7.7c0,0-0.3,2.9,3.8,2.9c0,0,3.6,0,3.6-2.8V1.9
		h-2.9V9.6z"/>
	<path class="st0" d="M8.1,6.6c0,0-0.7-0.5-1.2-0.6c0,0-1.4-0.6-1.7-1c0,0-0.5-0.5-0.2-1.1c0,0,0.1-0.4,0.7-0.4c0,0,0.8,0,0.8,0.7
		v0.9h2.7l0-1.3c0,0,0.2-2.1-3.2-2.2c0,0-0.3,0-0.6,0c0,0-2,0.1-2.8,1.2c0,0,0,0,0,0c0,0-0.3,0.3-0.3,1.4v0.8c0,0,0,0.9,0.4,1.5
		c0,0,0.3,0.4,0.9,0.8c0,0,1.3,0.7,2.1,1.1c0,0,0.8,0.5,0.7,1.2c0,0-0.1,0.8-0.8,0.7c0,0-0.7,0-0.7-0.8V8.9H2v1.3
		c0,0-0.1,2.4,3.6,2.4c0,0,3.5,0.1,3.7-2.5V9C9.3,9,9.5,7.5,8.1,6.6z"/>
</g>
</svg>
